<?xml version="1.0" standalone="no"?>
<!DOCTYPE svg PUBLIC "-//W3C//DTD SVG 20010904//EN"
 "http://www.w3.org/TR/2001/REC-SVG-20010904/DTD/svg10.dtd">
<svg version="1.0" xmlns="http://www.w3.org/2000/svg"
 width="49.000000pt" height="56.000000pt" viewBox="0 0 49.000000 56.000000"
 preserveAspectRatio="xMidYMid meet">
<metadata>
Created by potrace 1.16, written by Peter Selinger 2001-2019
</metadata>
<g transform="translate(0.000000,56.000000) scale(0.100000,-0.100000)"
fill="#000000" stroke="none">
<path d="M85 428 c-3 -40 -5 -136 -3 -213 l3 -140 30 0 c29 0 30 1 33 55 l3
56 33 -4 c24 -3 40 3 63 22 37 31 43 32 43 6 0 -16 7 -20 36 -20 30 0 35 3 29
18 -4 9 -10 79 -12 155 -6 134 -6 137 -28 137 -29 0 -35 -22 -35 -128 0 -77
-2 -85 -26 -107 -29 -27 -72 -33 -92 -13 -7 7 -12 43 -12 93 0 122 -8 155 -35
155 -22 0 -24 -6 -30 -72z"/>
</g>
</svg>
